<svg xmlns="http://www.w3.org/2000/svg" width="14" height="13" viewBox="0 0 14 13" fill="none">
  <g clip-path="url(#clip0_181_342)">
    <path d="M7.00001 9.50098C7.00001 11.4341 5.43316 13.001 3.5 13.001C1.56685 13.001 0 11.4341 0 9.50098C0 7.56783 1.56739 6.00098 3.5 6.00098C3.9875 6.00098 4.45163 6.10043 4.87337 6.28087C5.00326 6.3363 5.12935 6.39935 5.25055 6.46945L5.22283 6.51674L3.5 9.50098H7.00001Z" fill="black"/>
    <path d="M13.999 9.50098C13.999 11.4341 12.4322 13.001 10.499 13.001C8.56587 13.001 6.99902 11.4341 6.99902 9.50098H10.499L8.7762 6.51674L8.74902 6.46945C8.87022 6.39935 8.99631 6.3363 9.1262 6.28087C9.5474 6.10043 10.0115 6.00098 10.499 6.00098C12.4322 6.00098 13.999 7.56783 13.999 9.50098Z" fill="black"/>
    <path d="M10.5 3.5C10.5 4.63316 9.96196 5.64022 9.12718 6.2799C9.01577 6.36522 8.89892 6.44403 8.77718 6.51577L8.75 6.46848L7 3.43805L5.25054 6.46848L5.22283 6.51577C5.10109 6.44403 4.98478 6.36522 4.87337 6.2799C4.03859 5.64022 3.5 4.63316 3.5 3.5C3.5 1.56685 5.06739 0 7 0C8.93261 0 10.5 1.56685 10.5 3.5Z" fill="black"/>
  </g>
  <defs>
    <clipPath id="clip0_181_342">
      <rect width="14" height="13" fill="white"/>
    </clipPath>
  </defs>
</svg>
