<svg width="146" height="35" viewBox="0 0 146 35" fill="none" xmlns="http://www.w3.org/2000/svg">
<path d="M16.8 16.3841H11.84C10.624 18.6881 9.21597 21.5361 7.61597 24.9281C7.55197 25.1201 7.4453 25.3867 7.29597 25.7281C7.16797 26.0481 6.8693 26.6667 6.39997 27.5841C5.95197 28.4801 5.47197 29.3227 4.95997 30.1121C4.4693 30.9014 3.85063 31.7227 3.10397 32.5761C2.3573 33.4507 1.59997 34.1227 0.831967 34.5921C0.639967 34.7201 0.4693 34.7841 0.319967 34.7841C0.106633 34.7841 -3.33786e-05 34.6454 -3.33786e-05 34.3681C-3.33786e-05 34.1974 0.0319666 33.9841 0.0959666 33.7281C0.159967 33.4721 0.223967 33.2587 0.287967 33.0881L0.383967 32.8641C1.40797 30.3467 4.33063 24.8641 9.15197 16.4161H7.80797C7.48797 16.4161 7.32797 16.3201 7.32797 16.1281C7.32797 15.9787 7.40263 15.8401 7.55197 15.7121C7.72263 15.5627 7.8933 15.4881 8.06397 15.4881H9.69597L12.864 10.0801C13.376 9.14141 13.632 8.33075 13.632 7.64808C13.632 7.30675 13.568 7.02941 13.44 6.81608C13.312 6.58141 13.1946 6.43208 13.088 6.36808L12.896 6.27208C12.704 6.16541 12.608 6.04808 12.608 5.92008C12.608 5.81341 12.6613 5.72808 12.768 5.66408C12.896 5.57875 13.0026 5.53608 13.088 5.53608C15.2426 5.40808 17.4826 5.34408 19.808 5.34408C21.7493 5.34408 23.3173 5.39741 24.512 5.50408C24.8533 5.50408 25.024 5.64275 25.024 5.92008C25.024 6.02674 24.992 6.14408 24.928 6.27208C24.1813 8.02141 23.4666 9.40808 22.784 10.4321C22.72 10.5387 22.592 10.5921 22.4 10.5921C22.2293 10.5921 22.144 10.4641 22.144 10.2081C22.2933 9.76008 22.368 9.26941 22.368 8.73608C22.368 7.07208 21.5146 6.24008 19.808 6.24008C18.6133 6.24008 17.792 6.53875 17.344 7.13608C16.2133 8.56541 14.5386 11.3494 12.32 15.4881C12.896 15.4881 13.7386 15.4881 14.848 15.4881C15.9786 15.4667 16.8106 15.4561 17.344 15.4561C17.5146 15.4561 17.6213 15.4774 17.664 15.5201C17.6853 15.5414 17.696 15.5734 17.696 15.6161C17.696 15.7654 17.6 15.9254 17.408 16.0961C17.2373 16.2667 17.0346 16.3627 16.8 16.3841ZM19.5855 23.0081C19.4148 23.0081 19.3295 22.9441 19.3295 22.8161C19.3295 22.7521 19.3615 22.6667 19.4255 22.5601C20.6841 20.5974 21.3135 19.2534 21.3135 18.5281C21.3135 18.3361 21.2388 18.2401 21.0895 18.2401C20.4495 18.2401 18.9455 19.6907 16.5775 22.5921C15.8735 23.4881 15.2121 24.4161 14.5935 25.3761C13.9961 26.3361 13.5801 27.0721 13.3455 27.5841L12.9615 28.3201C12.7055 28.8321 12.3108 29.3014 11.7775 29.7281C11.2441 30.1761 10.6895 30.4001 10.1135 30.4001C9.8148 30.4001 9.66547 30.3254 9.66547 30.1761C9.66547 30.0481 9.76147 29.7814 9.95347 29.3761C10.1241 28.9707 10.3375 28.5227 10.5935 28.0321C10.8495 27.5414 11.1055 27.0614 11.3615 26.5921C11.6175 26.1227 11.8308 25.7281 12.0015 25.4081L12.2895 24.9281L15.6495 19.0721C16.9508 16.6187 18.3161 15.3921 19.7455 15.3921C19.9375 15.3921 20.0335 15.4667 20.0335 15.6161C20.0335 15.8081 19.5641 16.6081 18.6255 18.0161C17.7081 19.4027 17.1748 20.2881 17.0255 20.6721C16.9828 20.8001 16.9615 20.8747 16.9615 20.8961C16.9615 20.9387 16.9828 20.9601 17.0255 20.9601C17.0681 20.9601 17.1428 20.9067 17.2495 20.8001C18.8495 18.9867 20.5455 17.3761 22.3375 15.9681C22.4441 15.8614 22.6788 15.7121 23.0415 15.5201C23.4041 15.3067 23.7241 15.2001 24.0015 15.2001C24.4068 15.2001 24.6095 15.5521 24.6095 16.2561C24.6095 17.0241 24.3535 17.9414 23.8415 19.0081C23.3295 20.0747 22.6361 21.0134 21.7615 21.8241L21.6335 21.9521C21.5481 22.0161 21.4521 22.0907 21.3455 22.1761C21.2601 22.2401 21.1428 22.3254 20.9935 22.4321C20.8441 22.5387 20.6948 22.6347 20.5455 22.7201C20.3961 22.7841 20.2361 22.8481 20.0655 22.9121C19.8948 22.9761 19.7348 23.0081 19.5855 23.0081ZM30.2092 27.6161C28.4386 29.2374 27.2226 30.0481 26.5612 30.0481C26.2626 30.0481 26.1132 29.8774 26.1132 29.5361C26.1132 29.1094 26.2946 28.4587 26.6572 27.5841C27.0412 26.7094 27.4252 25.9414 27.8092 25.2801L28.3852 24.2881C28.4706 24.1387 28.5132 24.0427 28.5132 24.0001C28.5132 23.9574 28.4919 23.9361 28.4492 23.9361C28.3639 23.9361 28.2039 24.0534 27.9692 24.2881C27.3292 24.9921 26.5932 25.7494 25.7612 26.5601C24.9506 27.3494 24.2892 27.9681 23.7772 28.4161L23.0412 29.0561C22.2092 29.6961 21.5692 30.0161 21.1212 30.0161C20.6519 30.0161 20.4172 29.6534 20.4172 28.9281C20.4172 28.5654 20.5239 28.0107 20.7372 27.2641C20.9292 26.5174 21.0786 26.0161 21.1852 25.7601C21.6759 24.5654 22.2839 23.4027 23.0092 22.2721C23.7559 21.1414 24.6306 20.0641 25.6332 19.0401C26.6359 17.9947 27.7986 17.1521 29.1212 16.5121C30.4652 15.8721 31.8519 15.5521 33.2812 15.5521C34.4759 15.5521 35.0732 15.7334 35.0732 16.0961C35.0732 16.3094 34.8066 16.4161 34.2732 16.4161C32.3106 16.4161 30.4652 17.2587 28.7372 18.9441C27.0306 20.6081 25.6439 22.5281 24.5772 24.7041C24.2786 25.3014 24.1292 25.8027 24.1292 26.2081C24.1292 26.4427 24.2039 26.5601 24.3532 26.5601C24.6092 26.5601 24.9399 26.3787 25.3452 26.0161C25.6012 25.7814 25.9426 25.4721 26.3692 25.0881C26.8172 24.7041 27.5319 23.9681 28.5132 22.8801C29.4946 21.7921 30.2732 20.7787 30.8492 19.8401C30.9346 19.6694 31.0626 19.4667 31.2332 19.2321C31.4252 18.9974 31.7772 18.6881 32.2892 18.3041C32.8012 17.8987 33.3132 17.6961 33.8252 17.6961C34.1026 17.6961 34.2412 17.7707 34.2412 17.9201C34.2412 17.9627 34.2092 18.0374 34.1452 18.1441C34.0599 18.3147 33.8146 18.7414 33.4092 19.4241C33.0252 20.1067 32.6626 20.7574 32.3212 21.3761C31.9799 21.9734 31.6172 22.6347 31.2332 23.3601C30.8492 24.0641 30.5399 24.6721 30.3052 25.1841C30.0919 25.6961 29.9852 26.0374 29.9852 26.2081C29.9852 26.3361 30.0386 26.4001 30.1452 26.4001C30.4652 26.4001 31.2439 25.7814 32.4812 24.5441C33.4199 23.5627 34.5186 22.3574 35.7772 20.9281C35.8412 20.8641 35.8946 20.8321 35.9372 20.8321C35.9799 20.8321 36.0012 20.8747 36.0012 20.9601C36.0012 21.3654 35.8412 21.7601 35.5212 22.1441C33.4306 24.4694 31.6599 26.2934 30.2092 27.6161ZM43.461 26.5281C40.965 28.8747 39.3223 30.0481 38.533 30.0481C38.1703 30.0481 37.989 29.8561 37.989 29.4721C37.989 29.2374 38.0423 28.9494 38.149 28.6081C38.2556 28.2454 38.3836 27.8934 38.533 27.5521C38.7036 27.1894 38.8636 26.8587 39.013 26.5601C39.1623 26.2614 39.3116 25.9841 39.461 25.7281C39.6103 25.4721 39.685 25.3334 39.685 25.3121C40.005 24.7361 40.485 23.9361 41.125 22.9121C41.765 21.8667 42.277 21.0134 42.661 20.3521C43.045 19.6694 43.237 19.2534 43.237 19.1041C43.237 18.9974 43.1836 18.9441 43.077 18.9441L42.629 19.1041C41.6476 19.8081 40.4743 20.9067 39.109 22.4001C37.7436 23.8721 36.6236 25.1734 35.749 26.3041L34.437 27.9681C34.1596 28.3734 33.9143 28.7041 33.701 28.9601C33.4876 29.2161 33.1783 29.4614 32.773 29.6961C32.389 29.9521 31.9943 30.0801 31.589 30.0801C31.2903 30.0801 31.141 29.9947 31.141 29.8241C31.141 29.6534 31.3436 29.1627 31.749 28.3521C32.1543 27.5201 32.5596 26.7307 32.965 25.9841L33.573 24.8961L36.709 19.3921C37.029 18.8587 37.285 18.4534 37.477 18.1761C37.6903 17.8774 37.9783 17.5147 38.341 17.0881C38.7036 16.6401 39.0876 16.3094 39.493 16.0961C39.9196 15.8827 40.3676 15.7547 40.837 15.7121C41.0076 15.7121 41.093 15.7867 41.093 15.9361C41.093 16.0641 41.061 16.1707 40.997 16.2561C40.5063 17.0241 39.749 18.2934 38.725 20.0641C37.7223 21.8347 37.0823 22.9867 36.805 23.5201C36.741 23.6481 36.709 23.7441 36.709 23.8081C36.709 23.8507 36.7303 23.8721 36.773 23.8721C36.8156 23.8721 36.9223 23.8081 37.093 23.6801C37.4983 23.2107 38.021 22.6241 38.661 21.9201C39.3223 21.2161 40.4316 20.1601 41.989 18.7521C43.5463 17.3227 44.8263 16.3627 45.829 15.8721C46.0636 15.7654 46.2876 15.7121 46.501 15.7121C46.7996 15.7121 46.949 15.8827 46.949 16.2241C46.7783 17.2267 45.957 18.9441 44.485 21.3761C42.8636 24.0427 42.053 25.6214 42.053 26.1121C42.053 26.2827 42.1276 26.3681 42.277 26.3681C42.3836 26.3681 42.501 26.3361 42.629 26.2721C42.7783 26.1867 42.9383 26.0801 43.109 25.9521C43.2796 25.8027 43.4183 25.6747 43.525 25.5681C43.653 25.4614 43.813 25.3227 44.005 25.1521C44.197 24.9601 44.3143 24.8427 44.357 24.8001C45.253 23.9041 46.437 22.6134 47.909 20.9281C47.973 20.8641 48.0263 20.8321 48.069 20.8321C48.1116 20.8321 48.133 20.8747 48.133 20.9601C48.133 21.3654 47.973 21.7601 47.653 22.1441C46.0743 23.8934 44.677 25.3547 43.461 26.5281ZM55.906 24.8001C56.802 23.9041 57.986 22.6134 59.458 20.9281C59.522 20.8641 59.5753 20.8321 59.618 20.8321C59.6606 20.8321 59.682 20.8747 59.682 20.9601C59.682 21.3654 59.522 21.7601 59.202 22.1441C57.6233 23.8934 56.226 25.3547 55.01 26.5281C54.9033 26.6347 54.7006 26.8374 54.402 27.1361C54.1246 27.4134 53.9006 27.6374 53.73 27.8081C53.5593 27.9574 53.3353 28.1707 53.058 28.4481C52.7806 28.7041 52.546 28.9067 52.354 29.0561C52.162 29.2054 51.9486 29.3654 51.714 29.5361C51.5006 29.6854 51.298 29.7921 51.106 29.8561C50.9353 29.9414 50.786 29.9841 50.658 29.9841C50.274 29.9841 50.082 29.6321 50.082 28.9281C50.082 28.1601 50.242 27.1787 50.562 25.9841C50.9033 24.7894 51.2446 23.7867 51.586 22.9761L52.066 21.7601C52.0873 21.7174 52.098 21.6747 52.098 21.6321C52.098 21.5894 52.0766 21.5681 52.034 21.5681L51.842 21.6321C51.0313 22.4427 50.1886 23.3601 49.314 24.3841C48.4606 25.3867 47.81 26.1867 47.362 26.7841L46.69 27.6801C46.2633 28.3414 45.762 28.9174 45.186 29.4081C44.6313 29.8987 44.2046 30.1441 43.906 30.1441C43.6926 30.1441 43.586 30.0054 43.586 29.7281C43.586 29.3227 43.778 28.6827 44.162 27.8081C44.546 26.9334 44.93 26.1547 45.314 25.4721L45.89 24.4481L50.562 16.0961C54.7646 8.62941 57.826 3.68008 59.746 1.24808C60.386 0.416079 60.834 7.82013e-05 61.09 7.82013e-05C61.1966 7.82013e-05 61.25 0.0854117 61.25 0.256079C61.25 0.725412 60.9086 1.64275 60.226 3.00808C56.8766 9.06675 54.5513 13.2587 53.25 15.5841C50.7113 20.1281 49.186 22.8267 48.674 23.6801V23.8081C48.674 23.8721 48.6953 23.9041 48.738 23.9041C48.7806 23.9041 48.8446 23.8614 48.93 23.7761L50.434 22.1441C51.458 21.0561 52.386 20.0961 53.218 19.2641C54.05 18.4321 54.978 17.6214 56.002 16.8321C57.026 16.0214 57.7833 15.6161 58.274 15.6161C58.6153 15.6161 58.786 15.8721 58.786 16.3841C58.786 16.6827 58.6793 17.1414 58.466 17.7601C58.2526 18.3787 58.0393 18.6881 57.826 18.6881C57.7406 18.6881 57.666 18.5814 57.602 18.3681C57.4953 17.8347 57.186 17.5681 56.674 17.5681C55.9486 17.5681 55.2766 18.2614 54.658 19.6481C54.0393 21.0134 53.602 22.3467 53.346 23.6481C53.09 24.9281 52.962 25.7921 52.962 26.2401C52.962 26.7094 53.0793 26.9441 53.314 26.9441C53.506 26.9441 53.7513 26.8267 54.05 26.5921C54.37 26.3361 54.7326 25.9947 55.138 25.5681C55.5646 25.1414 55.8206 24.8854 55.906 24.8001ZM74.3065 18.4641C74.3278 18.4214 74.3385 18.3574 74.3385 18.2721C74.3385 18.2081 74.3065 18.1761 74.2425 18.1761L73.9545 18.3041C71.9491 20.8001 70.8611 22.1547 70.6905 22.3681C69.3251 24.0107 68.0131 25.5147 66.7545 26.8801C65.4958 28.2241 64.5785 29.1627 64.0025 29.6961L63.1385 30.5281C62.8825 30.6987 62.6798 30.7841 62.5305 30.7841C62.3171 30.7841 62.2105 30.5814 62.2105 30.1761C62.3598 28.3627 62.9038 25.6534 63.8425 22.0481C64.5251 19.5094 65.3251 17.0027 66.2425 14.5281C67.1598 12.0321 67.9171 10.1761 68.5145 8.96008L69.3785 7.10408C69.6985 6.48541 70.0825 6.00541 70.5305 5.66408C70.9998 5.30141 71.3731 5.09875 71.6505 5.05608L72.0985 4.99208C72.3331 4.99208 72.4505 5.08808 72.4505 5.28008C72.4505 5.38675 72.4078 5.54675 72.3225 5.76008C71.3625 7.85075 70.0931 11.3387 68.5145 16.2241C66.9358 21.0881 66.1465 24.1281 66.1465 25.3441C66.1465 25.6427 66.2211 25.7921 66.3705 25.7921C66.4771 25.7921 66.6265 25.6961 66.8185 25.5041C69.3358 22.7094 71.8105 19.6801 74.2425 16.4161C74.5625 15.9894 74.8825 15.4881 75.2025 14.9121C75.5225 14.3361 75.7678 13.8667 75.9385 13.5041L76.1945 12.9601C76.5998 11.8934 77.0158 10.8694 77.4425 9.88808C77.8691 8.90675 78.1891 8.19208 78.4025 7.74408L78.7225 7.10408C79.0425 6.48541 79.4265 6.00541 79.8745 5.66408C80.3225 5.30141 80.6958 5.09875 80.9945 5.05608L81.4425 4.99208C81.6558 4.99208 81.7625 5.08808 81.7625 5.28008L81.6985 5.56808C81.3358 6.42141 80.8771 7.56275 80.3225 8.99208C79.7678 10.4214 78.9251 12.8854 77.7945 16.3841C76.6851 19.8827 75.9171 22.8481 75.4905 25.2801C75.5118 25.6001 75.6078 25.7601 75.7785 25.7601C75.9065 25.7601 76.0558 25.6641 76.2265 25.4721C77.6131 24.0854 79.6078 21.7281 82.2105 18.4001C83.8531 16.2667 85.3785 13.9947 86.7865 11.5841C88.1945 9.17341 88.8985 7.54141 88.8985 6.68808C88.8985 6.19741 89.2291 5.79208 89.8905 5.47208C90.5305 5.15208 91.2345 4.99208 92.0025 4.99208C92.5358 4.99208 92.8025 5.18408 92.8025 5.56808C92.8025 6.05875 92.5358 6.76275 92.0025 7.68008C91.4905 8.57608 90.6905 9.71741 89.6025 11.1041C88.5145 12.4907 87.5118 13.7281 86.5945 14.8161C85.6985 15.9041 84.4825 17.3547 82.9465 19.1681C81.4105 20.9601 80.3225 22.2401 79.6825 23.0081C78.3171 24.6507 77.0265 26.1014 75.8105 27.3601C74.6158 28.5974 73.7625 29.4401 73.2505 29.8881L72.4505 30.5281C72.2158 30.6987 72.0238 30.7841 71.8745 30.7841C71.6398 30.7841 71.5225 30.5814 71.5225 30.1761C71.7571 27.4881 72.6851 23.5841 74.3065 18.4641ZM90.428 27.6161C88.6573 29.2374 87.4413 30.0481 86.78 30.0481C86.4813 30.0481 86.332 29.8774 86.332 29.5361C86.332 29.1094 86.5133 28.4587 86.876 27.5841C87.26 26.7094 87.644 25.9414 88.028 25.2801L88.604 24.2881C88.6893 24.1387 88.732 24.0427 88.732 24.0001C88.732 23.9574 88.7106 23.9361 88.668 23.9361C88.5826 23.9361 88.4226 24.0534 88.188 24.2881C87.548 24.9921 86.812 25.7494 85.98 26.5601C85.1693 27.3494 84.508 27.9681 83.996 28.4161L83.26 29.0561C82.428 29.6961 81.788 30.0161 81.34 30.0161C80.8706 30.0161 80.636 29.6534 80.636 28.9281C80.636 28.5654 80.7426 28.0107 80.956 27.2641C81.148 26.5174 81.2973 26.0161 81.404 25.7601C81.8946 24.5654 82.5026 23.4027 83.228 22.2721C83.9746 21.1414 84.8493 20.0641 85.852 19.0401C86.8546 17.9947 88.0173 17.1521 89.34 16.5121C90.684 15.8721 92.0706 15.5521 93.5 15.5521C94.6946 15.5521 95.292 15.7334 95.292 16.0961C95.292 16.3094 95.0253 16.4161 94.492 16.4161C92.5293 16.4161 90.684 17.2587 88.956 18.9441C87.2493 20.6081 85.8626 22.5281 84.796 24.7041C84.4973 25.3014 84.348 25.8027 84.348 26.2081C84.348 26.4427 84.4226 26.5601 84.572 26.5601C84.828 26.5601 85.1586 26.3787 85.564 26.0161C85.82 25.7814 86.1613 25.4721 86.588 25.0881C87.036 24.7041 87.7506 23.9681 88.732 22.8801C89.7133 21.7921 90.492 20.7787 91.068 19.8401C91.1533 19.6694 91.2813 19.4667 91.452 19.2321C91.644 18.9974 91.996 18.6881 92.508 18.3041C93.02 17.8987 93.532 17.6961 94.044 17.6961C94.3213 17.6961 94.46 17.7707 94.46 17.9201C94.46 17.9627 94.428 18.0374 94.364 18.1441C94.2786 18.3147 94.0333 18.7414 93.628 19.4241C93.244 20.1067 92.8813 20.7574 92.54 21.3761C92.1986 21.9734 91.836 22.6347 91.452 23.3601C91.068 24.0641 90.7586 24.6721 90.524 25.1841C90.3106 25.6961 90.204 26.0374 90.204 26.2081C90.204 26.3361 90.2573 26.4001 90.364 26.4001C90.684 26.4001 91.4626 25.7814 92.7 24.5441C93.6386 23.5627 94.7373 22.3574 95.996 20.9281C96.06 20.8641 96.1133 20.8321 96.156 20.8321C96.1986 20.8321 96.22 20.8747 96.22 20.9601C96.22 21.3654 96.06 21.7601 95.74 22.1441C93.6493 24.4694 91.8786 26.2934 90.428 27.6161ZM100.992 23.0081C100.821 23.0081 100.736 22.9441 100.736 22.8161C100.736 22.7521 100.768 22.6667 100.832 22.5601C102.09 20.5974 102.72 19.2534 102.72 18.5281C102.72 18.3361 102.645 18.2401 102.496 18.2401C101.856 18.2401 100.352 19.6907 97.9837 22.5921C97.2797 23.4881 96.6184 24.4161 95.9997 25.3761C95.4024 26.3361 94.9864 27.0721 94.7517 27.5841L94.3677 28.3201C94.1117 28.8321 93.7171 29.3014 93.1837 29.7281C92.6504 30.1761 92.0957 30.4001 91.5197 30.4001C91.2211 30.4001 91.0717 30.3254 91.0717 30.1761C91.0717 30.0481 91.1677 29.7814 91.3597 29.3761C91.5304 28.9707 91.7437 28.5227 91.9997 28.0321C92.2557 27.5414 92.5117 27.0614 92.7677 26.5921C93.0237 26.1227 93.2371 25.7281 93.4077 25.4081L93.6957 24.9281L97.0557 19.0721C98.3571 16.6187 99.7224 15.3921 101.152 15.3921C101.344 15.3921 101.44 15.4667 101.44 15.6161C101.44 15.8081 100.97 16.6081 100.032 18.0161C99.1144 19.4027 98.5811 20.2881 98.4317 20.6721C98.3891 20.8001 98.3677 20.8747 98.3677 20.8961C98.3677 20.9387 98.3891 20.9601 98.4317 20.9601C98.4744 20.9601 98.5491 20.9067 98.6557 20.8001C100.256 18.9867 101.952 17.3761 103.744 15.9681C103.85 15.8614 104.085 15.7121 104.448 15.5201C104.81 15.3067 105.13 15.2001 105.408 15.2001C105.813 15.2001 106.016 15.5521 106.016 16.2561C106.016 17.0241 105.76 17.9414 105.248 19.0081C104.736 20.0747 104.042 21.0134 103.168 21.8241L103.04 21.9521C102.954 22.0161 102.858 22.0907 102.752 22.1761C102.666 22.2401 102.549 22.3254 102.4 22.4321C102.25 22.5387 102.101 22.6347 101.952 22.7201C101.802 22.7841 101.642 22.8481 101.472 22.9121C101.301 22.9761 101.141 23.0081 100.992 23.0081ZM110.335 23.0081C110.165 23.0081 110.079 22.9441 110.079 22.8161C110.079 22.7521 110.111 22.6667 110.175 22.5601C111.434 20.5974 112.063 19.2534 112.063 18.5281C112.063 18.3361 111.989 18.2401 111.839 18.2401C111.199 18.2401 109.695 19.6907 107.327 22.5921C106.623 23.4881 105.962 24.4161 105.343 25.3761C104.746 26.3361 104.33 27.0721 104.095 27.5841L103.711 28.3201C103.455 28.8321 103.061 29.3014 102.527 29.7281C101.994 30.1761 101.439 30.4001 100.863 30.4001C100.565 30.4001 100.415 30.3254 100.415 30.1761C100.415 30.0481 100.511 29.7814 100.703 29.3761C100.874 28.9707 101.087 28.5227 101.343 28.0321C101.599 27.5414 101.855 27.0614 102.111 26.5921C102.367 26.1227 102.581 25.7281 102.751 25.4081L103.039 24.9281L106.399 19.0721C107.701 16.6187 109.066 15.3921 110.495 15.3921C110.687 15.3921 110.783 15.4667 110.783 15.6161C110.783 15.8081 110.314 16.6081 109.375 18.0161C108.458 19.4027 107.925 20.2881 107.775 20.6721C107.733 20.8001 107.711 20.8747 107.711 20.8961C107.711 20.9387 107.733 20.9601 107.775 20.9601C107.818 20.9601 107.893 20.9067 107.999 20.8001C109.599 18.9867 111.295 17.3761 113.087 15.9681C113.194 15.8614 113.429 15.7121 113.791 15.5201C114.154 15.3067 114.474 15.2001 114.751 15.2001C115.157 15.2001 115.359 15.5521 115.359 16.2561C115.359 17.0241 115.103 17.9414 114.591 19.0081C114.079 20.0747 113.386 21.0134 112.511 21.8241L112.383 21.9521C112.298 22.0161 112.202 22.0907 112.095 22.1761C112.01 22.2401 111.893 22.3254 111.743 22.4321C111.594 22.5387 111.445 22.6347 111.295 22.7201C111.146 22.7841 110.986 22.8481 110.815 22.9121C110.645 22.9761 110.485 23.0081 110.335 23.0081ZM116.063 26.5281C113.567 28.8747 111.967 30.0481 111.263 30.0481C110.901 30.0481 110.719 29.8027 110.719 29.3121C110.719 28.8214 110.911 28.1067 111.295 27.1681C111.679 26.2294 112.063 25.4081 112.447 24.7041L113.023 23.6801C114.645 20.8427 115.871 18.8054 116.703 17.5681C117.066 17.0347 117.525 16.5867 118.079 16.2241C118.655 15.8401 119.189 15.6481 119.679 15.6481C119.85 15.6481 119.935 15.7227 119.935 15.8721C119.935 15.9787 119.861 16.1814 119.711 16.4801C119.455 16.9494 118.826 18.0694 117.823 19.8401C116.821 21.6107 116.223 22.6774 116.031 23.0401C115.157 24.5761 114.719 25.6001 114.719 26.1121C114.719 26.3041 114.783 26.4001 114.911 26.4001C115.125 26.4001 115.807 25.8667 116.959 24.8001C117.855 23.9041 119.039 22.6134 120.511 20.9281C120.575 20.8641 120.629 20.8321 120.671 20.8321C120.714 20.8321 120.735 20.8747 120.735 20.9601C120.735 21.3654 120.575 21.7601 120.255 22.1441C118.677 23.8934 117.279 25.3547 116.063 26.5281ZM120.319 13.8241C119.786 13.8241 119.519 13.5041 119.519 12.8641C119.519 12.2667 119.743 11.6694 120.191 11.0721C120.639 10.4534 121.13 10.1441 121.663 10.1441C122.303 10.1441 122.623 10.5067 122.623 11.2321C122.623 11.8294 122.378 12.4161 121.887 12.9921C121.397 13.5467 120.874 13.8241 120.319 13.8241ZM128.18 26.5281C125.684 28.8747 124.041 30.0481 123.252 30.0481C122.889 30.0481 122.708 29.8561 122.708 29.4721C122.708 29.2374 122.761 28.9494 122.868 28.6081C122.974 28.2454 123.102 27.8934 123.252 27.5521C123.422 27.1894 123.582 26.8587 123.732 26.5601C123.881 26.2614 124.03 25.9841 124.18 25.7281C124.329 25.4721 124.404 25.3334 124.404 25.3121C124.724 24.7361 125.204 23.9361 125.844 22.9121C126.484 21.8667 126.996 21.0134 127.38 20.3521C127.764 19.6694 127.956 19.2534 127.956 19.1041C127.956 18.9974 127.902 18.9441 127.796 18.9441L127.348 19.1041C126.366 19.8081 125.193 20.9067 123.828 22.4001C122.462 23.8721 121.342 25.1734 120.468 26.3041L119.156 27.9681C118.878 28.3734 118.633 28.7041 118.42 28.9601C118.206 29.2161 117.897 29.4614 117.492 29.6961C117.108 29.9521 116.713 30.0801 116.308 30.0801C116.009 30.0801 115.86 29.9947 115.86 29.8241C115.86 29.6534 116.062 29.1627 116.468 28.3521C116.873 27.5201 117.278 26.7307 117.684 25.9841L118.292 24.8961L121.428 19.3921C121.748 18.8587 122.004 18.4534 122.196 18.1761C122.409 17.8774 122.697 17.5147 123.06 17.0881C123.422 16.6401 123.806 16.3094 124.212 16.0961C124.638 15.8827 125.086 15.7547 125.556 15.7121C125.726 15.7121 125.812 15.7867 125.812 15.9361C125.812 16.0641 125.78 16.1707 125.716 16.2561C125.225 17.0241 124.468 18.2934 123.444 20.0641C122.441 21.8347 121.801 22.9867 121.524 23.5201C121.46 23.6481 121.428 23.7441 121.428 23.8081C121.428 23.8507 121.449 23.8721 121.492 23.8721C121.534 23.8721 121.641 23.8081 121.812 23.6801C122.217 23.2107 122.74 22.6241 123.38 21.9201C124.041 21.2161 125.15 20.1601 126.708 18.7521C128.265 17.3227 129.545 16.3627 130.548 15.8721C130.782 15.7654 131.006 15.7121 131.22 15.7121C131.518 15.7121 131.668 15.8827 131.668 16.2241C131.497 17.2267 130.676 18.9441 129.204 21.3761C127.582 24.0427 126.772 25.6214 126.772 26.1121C126.772 26.2827 126.846 26.3681 126.996 26.3681C127.102 26.3681 127.22 26.3361 127.348 26.2721C127.497 26.1867 127.657 26.0801 127.828 25.9521C127.998 25.8027 128.137 25.6747 128.244 25.5681C128.372 25.4614 128.532 25.3227 128.724 25.1521C128.916 24.9601 129.033 24.8427 129.076 24.8001C129.972 23.9041 131.156 22.6134 132.628 20.9281C132.692 20.8641 132.745 20.8321 132.788 20.8321C132.83 20.8321 132.852 20.8747 132.852 20.9601C132.852 21.3654 132.692 21.7601 132.372 22.1441C130.793 23.8934 129.396 25.3547 128.18 26.5281ZM140.625 24.8001C141.521 23.9041 142.705 22.6134 144.177 20.9281C144.241 20.8641 144.294 20.8321 144.337 20.8321C144.379 20.8321 144.401 20.8747 144.401 20.9601C144.401 21.3654 144.241 21.7601 143.921 22.1441C142.342 23.8934 140.945 25.3547 139.729 26.5281C139.622 26.6347 139.419 26.8374 139.121 27.1361C138.843 27.4134 138.619 27.6374 138.449 27.8081C138.278 27.9574 138.054 28.1707 137.777 28.4481C137.499 28.7041 137.265 28.9067 137.073 29.0561C136.881 29.2054 136.667 29.3654 136.433 29.5361C136.219 29.6854 136.017 29.7921 135.825 29.8561C135.654 29.9414 135.505 29.9841 135.377 29.9841C134.993 29.9841 134.801 29.6321 134.801 28.9281C134.801 28.1601 134.961 27.1787 135.281 25.9841C135.622 24.7894 135.963 23.7867 136.305 22.9761L136.785 21.7601C136.806 21.7174 136.817 21.6747 136.817 21.6321C136.817 21.5894 136.795 21.5681 136.753 21.5681L136.561 21.6321C135.75 22.4427 134.907 23.3601 134.033 24.3841C133.179 25.3867 132.529 26.1867 132.081 26.7841L131.409 27.6801C130.982 28.3414 130.481 28.9174 129.905 29.4081C129.35 29.8987 128.923 30.1441 128.625 30.1441C128.411 30.1441 128.305 30.0054 128.305 29.7281C128.305 29.3227 128.497 28.6827 128.881 27.8081C129.265 26.9334 129.649 26.1547 130.033 25.4721L130.609 24.4481L135.281 16.0961C139.483 8.62941 142.545 3.68008 144.465 1.24808C145.105 0.416079 145.553 7.82013e-05 145.809 7.82013e-05C145.915 7.82013e-05 145.969 0.0854117 145.969 0.256079C145.969 0.725412 145.627 1.64275 144.945 3.00808C141.595 9.06675 139.27 13.2587 137.969 15.5841C135.43 20.1281 133.905 22.8267 133.393 23.6801V23.8081C133.393 23.8721 133.414 23.9041 133.457 23.9041C133.499 23.9041 133.563 23.8614 133.649 23.7761L135.153 22.1441C136.177 21.0561 137.105 20.0961 137.937 19.2641C138.769 18.4321 139.697 17.6214 140.721 16.8321C141.745 16.0214 142.502 15.6161 142.993 15.6161C143.334 15.6161 143.505 15.8721 143.505 16.3841C143.505 16.6827 143.398 17.1414 143.185 17.7601C142.971 18.3787 142.758 18.6881 142.545 18.6881C142.459 18.6881 142.385 18.5814 142.321 18.3681C142.214 17.8347 141.905 17.5681 141.393 17.5681C140.667 17.5681 139.995 18.2614 139.377 19.6481C138.758 21.0134 138.321 22.3467 138.065 23.6481C137.809 24.9281 137.681 25.7921 137.681 26.2401C137.681 26.7094 137.798 26.9441 138.033 26.9441C138.225 26.9441 138.47 26.8267 138.769 26.5921C139.089 26.3361 139.451 25.9947 139.857 25.5681C140.283 25.1414 140.539 24.8854 140.625 24.8001Z" fill="white"/>
</svg>

