<svg width="1280" height="595" viewBox="0 0 1280 595" fill="none" xmlns="http://www.w3.org/2000/svg">
<path d="M17.1239 0.521308L-834 646.049M17.0972 0.5H1244.5M-14.1289 24.1807H1275.72M-48.7057 50.4022H1310.29M-87.1978 79.5935H1348.78M-130.314 112.293H1391.89M-178.937 149.168H1440.51M-234.196 191.075H1495.77M-297.551 239.12H1559.12M-370.921 294.762H1632.48M-456.881 359.953H1718.43M-558.978 437.379H1820.52M-682.229 530.85H1943.76M-833.965 645.921H2095.48M72.9177 0.521308L-700.828 646.049M128.711 0.521308L-567.656 646.049M184.505 0.521308L-434.484 646.049M240.299 0.521308L-301.312 646.049M296.093 0.521308L-168.14 646.049M351.887 0.521308L-34.9677 646.049M407.68 0.521308L98.2044 646.049M463.474 0.521308L231.376 646.049M519.268 0.521308L364.551 646.049M575.062 0.521308L497.723 646.049M630.855 0.521308L630.895 646.049M686.649 0.521308L764.067 646.049M742.44 0.521308L897.237 646.049M798.234 0.521308L1030.41 646.049M854.028 0.521308L1163.58 646.049M909.821 0.521308L1296.75 646.049M965.615 0.521308L1429.92 646.049M1021.41 0.521308L1563.1 646.049M1077.2 0.521308L1696.27 646.049M1133 0.521308L1829.44 646.049M1188.79 0.521308L1962.61 646.049M1244.58 0.521308L2071.48 627.613" stroke="url(#paint0_linear_177_12101)"/>
<defs>
<linearGradient id="paint0_linear_177_12101" x1="631" y1="0.513672" x2="630.522" y2="646.049" gradientUnits="userSpaceOnUse">
<stop stop-color="#090909"/>
<stop offset="1" stop-color="#363636"/>
</linearGradient>
</defs>
</svg>

