<svg width="130" height="122" viewBox="0 0 130 122" fill="none" xmlns="http://www.w3.org/2000/svg">
<path d="M64.8502 64.8504C82.0631 64.8504 96.0169 50.8966 96.0169 33.6837C96.0169 16.4709 82.0631 2.51709 64.8502 2.51709C47.6374 2.51709 33.6836 16.4709 33.6836 33.6837C33.6836 50.8966 47.6374 64.8504 64.8502 64.8504Z" stroke="#FFFFFF" stroke-width="5.03409" stroke-miterlimit="10"/>
<path d="M64.8502 34.1519L33.6836 88.1309H96.0124L64.8502 34.1519Z" stroke="#FFFFFF" stroke-width="5.03409" stroke-miterlimit="10"/>
<path d="M33.6837 119.296C50.8966 119.296 64.8504 105.342 64.8504 88.1295C64.8504 70.9167 50.8966 56.9629 33.6837 56.9629C16.4709 56.9629 2.51709 70.9167 2.51709 88.1295C2.51709 105.342 16.4709 119.296 33.6837 119.296Z" stroke="#FFFFFF" stroke-width="5.03409" stroke-miterlimit="10"/>
<path d="M96.0126 119.296C113.225 119.296 127.179 105.342 127.179 88.1295C127.179 70.9167 113.225 56.9629 96.0126 56.9629C78.7997 56.9629 64.8459 70.9167 64.8459 88.1295C64.8459 105.342 78.7997 119.296 96.0126 119.296Z" stroke="#FFFFFF" stroke-width="5.03409" stroke-miterlimit="10"/>
<path d="M64.8505 2.99316V70.1369" stroke="#FFFFFF" stroke-width="5.03409" stroke-miterlimit="10"/>
<path d="M122.998 103.707L64.8506 70.1372" stroke="#FFFFFF" stroke-width="5.03409" stroke-miterlimit="10"/>
<path d="M6.70325 103.707L64.8504 70.1372" stroke="#FFFFFF" stroke-width="5.03409" stroke-miterlimit="10"/>
</svg>

