<svg width="443" height="150" viewBox="0 0 443 150" fill="none" xmlns="http://www.w3.org/2000/svg">
<path d="M77.7805 78.4671C94.9934 78.4671 108.947 64.5133 108.947 47.3004C108.947 30.0876 94.9934 16.1338 77.7805 16.1338C60.5677 16.1338 46.6139 30.0876 46.6139 47.3004C46.6139 64.5133 60.5677 78.4671 77.7805 78.4671Z" stroke="#00FF05" stroke-width="5.03409" stroke-miterlimit="10"/>
<path d="M77.7805 47.7686L46.6139 101.748H108.943L77.7805 47.7686Z" stroke="#00FF05" stroke-width="5.03409" stroke-miterlimit="10"/>
<path d="M46.614 132.913C63.8269 132.913 77.7807 118.959 77.7807 101.746C77.7807 84.5334 63.8269 70.5796 46.614 70.5796C29.4012 70.5796 15.4474 84.5334 15.4474 101.746C15.4474 118.959 29.4012 132.913 46.614 132.913Z" stroke="#00FF05" stroke-width="5.03409" stroke-miterlimit="10"/>
<path d="M108.943 132.913C126.156 132.913 140.11 118.959 140.11 101.746C140.11 84.5334 126.156 70.5796 108.943 70.5796C91.73 70.5796 77.7762 84.5334 77.7762 101.746C77.7762 118.959 91.73 132.913 108.943 132.913Z" stroke="#00FF05" stroke-width="5.03409" stroke-miterlimit="10"/>
<path d="M77.7808 16.6099V83.7536" stroke="#00FF05" stroke-width="5.03409" stroke-miterlimit="10"/>
<path d="M135.928 117.324L77.7809 83.7539" stroke="#00FF05" stroke-width="5.03409" stroke-miterlimit="10"/>
<path d="M19.6335 117.324L77.7807 83.7539" stroke="#00FF05" stroke-width="5.03409" stroke-miterlimit="10"/>
<g clip-path="url(#clip0_139_3266)">
<path d="M179.911 23.3581H170.789V47.3502H160.322V23.3581H151.195V14.3711H179.911V23.3581Z" fill="white"/>
<path d="M211.581 14.3711V47.3502H201.115V35.2137H191.621V47.3502H181.155V14.3711H191.621V25.9509H201.115V14.3711H211.581Z" fill="white"/>
<path d="M225.669 23.3581V26.6028H241V35.2639H225.669V38.3682H242.253V47.3552H215.202V14.3711H242.253V23.3581H225.669Z" fill="white"/>
<path d="M199.184 57.6987V90.6778H188.994V81.3197C188.994 76.8262 189.039 72.8894 189.224 68.7219C188.949 70.111 188.623 71.5453 188.206 73.2154L184.039 90.6778H175.518L171.255 73.2154C170.884 71.6406 170.558 70.2966 170.283 69.0027C170.468 73.0799 170.513 76.9215 170.513 81.3247V90.6828H160.323V57.7037H176.441L179.034 70.2113C179.31 71.5102 179.545 72.8041 179.821 74.1482C180.052 72.8041 180.283 71.5102 180.563 70.2113L183.066 57.7037H199.184V57.6987Z" fill="white"/>
<path d="M223.623 86.3699H211.767L210.468 90.6778H200.002L211.165 57.6987H223.949L235.759 90.6778H224.922L223.623 86.3699ZM221.306 78.7269L219.034 71.1291C218.573 69.5092 218.061 67.8392 217.645 66.2193L216.256 71.1291L213.984 78.7269H221.301H221.306Z" fill="white"/>
<path d="M260.057 66.6857H250.93V90.6778H240.463V66.6857H231.341V57.6987H260.057V66.6857Z" fill="white"/>
<path d="M291.075 90.6778H280.373C279.957 89.8002 279.771 88.7771 279.726 87.3428L279.586 84.0529C279.445 80.9035 278.472 79.9305 275.373 79.9305H271.762V90.6778H261.296V57.6987H277.555C287.469 57.6987 290.248 62.2374 290.248 67.3778C290.248 71.3146 288.583 73.9576 285.293 75.2515C288.352 76.41 289.646 78.6768 289.927 82.4782L290.298 87.3428C290.438 89.058 290.574 89.8453 291.085 90.6778H291.075ZM279.541 69.0478C279.541 66.776 278.292 65.7579 275.93 65.7579H271.762V72.3377H275.93C278.292 72.3377 279.541 71.3197 279.541 69.0478Z" fill="white"/>
<path d="M293.257 57.6987H303.723V90.6778H293.257V57.6987Z" fill="white"/>
<path d="M339.476 90.6778H327.199L325.393 87.6688L321.873 81.6958C320.669 83.6417 319.325 85.7279 318.026 87.6688L316.035 90.6778H304.41L316.547 73.772L305.709 57.6987H317.846L319.651 60.5724C320.579 62.0067 321.456 63.446 322.289 64.8352C323.167 63.446 324.004 62.0117 324.927 60.5724L326.732 57.6987H338.036L327.66 73.0749L339.471 90.6778H339.476Z" fill="white"/>
<path d="M160.317 121.872V101.029H170.784V121.596C170.784 124.189 171.942 125.904 175.418 125.904C178.893 125.904 180.051 124.189 180.051 121.596V101.029H190.518V121.872C190.518 130.072 185.147 134.796 175.418 134.796C165.688 134.796 160.317 130.072 160.317 121.872Z" fill="white"/>
<path d="M224.776 101.024V134.003H213.893L206.947 122.283C205.789 120.337 204.771 118.577 203.843 116.771C203.984 120.663 204.029 124.414 204.029 128.627V133.998H193.838V101.019H204.726L211.536 112.739C212.554 114.5 213.668 116.721 214.731 118.948C214.59 114.826 214.59 110.889 214.59 106.395V101.024H224.781H224.776Z" fill="white"/>
<path d="M253.061 125.021V134.008H228.417V101.029H238.883V125.021H253.056H253.061Z" fill="white"/>
<path d="M289.059 117.468C289.059 106.952 295.87 100.282 306.752 100.282C316.431 100.282 321.853 105.608 323.337 113.667H312.545C311.757 110.608 309.536 109.173 306.522 109.173C302.399 109.173 299.897 111.721 299.897 117.463C299.897 123.206 302.585 125.939 306.662 125.939C309.486 125.939 311.803 124.64 312.59 121.49H323.287C321.943 129.224 315.318 134.831 306.151 134.831C296.1 134.831 289.059 128.07 289.059 117.458V117.468Z" fill="white"/>
<path d="M339.736 121.634L335.8 126.268V134.002H325.333V101.022H335.8V113.946L346.035 101.022H358.127L346.592 114.503L358.959 134.002H347.008L339.736 121.634Z" fill="white"/>
<path d="M370.193 110.011V113.256H385.524V121.917H370.193V125.021H386.778V134.008H359.727V101.029H386.778V110.016H370.193V110.011Z" fill="white"/>
<path d="M421.683 117.512C421.683 128.445 416.216 134.002 405.379 134.002H389.953V101.022H405.514C416.262 101.022 421.678 106.579 421.678 117.512H421.683ZM410.845 117.512C410.845 111.815 409.175 109.729 404.872 109.729H400.424V125.29H404.872C409.18 125.29 410.845 123.204 410.845 117.507V117.512Z" fill="white"/>
<path d="M425.514 102.604H423.925V106.776H422.104V102.604H420.514V101.039H425.509V102.604H425.514Z" fill="white"/>
<path d="M432.721 101.039V106.776H430.946V105.146C430.946 104.364 430.956 103.682 430.986 102.955C430.936 103.196 430.88 103.446 430.81 103.737L430.083 106.776H428.599L427.856 103.737C427.791 103.461 427.736 103.231 427.686 103.005C427.716 103.712 427.726 104.384 427.726 105.146V106.776H425.956V101.039H428.759L429.21 103.216C429.26 103.441 429.301 103.667 429.346 103.903C429.386 103.667 429.426 103.441 429.476 103.216L429.912 101.039H432.716H432.721Z" fill="white"/>
<path d="M270.689 100.282C260.408 100.282 253.227 106.952 253.227 117.514C253.227 128.075 260.358 134.79 270.689 134.79C281.02 134.79 288.152 128.12 288.152 117.514C288.152 106.907 280.97 100.282 270.689 100.282ZM267.826 125.332C265.529 124.309 264.069 121.842 264.069 117.514C264.069 117.072 264.089 116.656 264.12 116.25L267.896 109.705C268.728 109.349 269.666 109.173 270.689 109.173C271.783 109.173 272.776 109.374 273.653 109.785L277.239 115.994C277.284 116.475 277.314 116.972 277.314 117.514C277.314 121.842 275.855 124.309 273.558 125.332H267.826Z" fill="white"/>
<path d="M268.242 109.108L261.381 120.988C260.268 122.919 261.662 125.337 263.889 125.337H277.605C279.837 125.337 281.231 122.919 280.113 120.988L273.252 109.108C272.139 107.177 269.35 107.177 268.232 109.108H268.242Z" fill="#090909"/>
</g>
<defs>
<clipPath id="clip0_139_3266">
<rect width="281.526" height="120.467" fill="white" transform="translate(151.195 14.3711)"/>
</clipPath>
</defs>
</svg>

